<?xml version="1.0" encoding="UTF-8"?>
<svg width="778px" height="540px" viewBox="0 0 778 540" version="1.1" xmlns="http://www.w3.org/2000/svg" xmlns:xlink="http://www.w3.org/1999/xlink">
    <title>logo_b</title>
    <g id="Page-1" stroke="none" stroke-width="1" fill="none" fill-rule="evenodd">
        <g id="logo_b" fill="currentColor">
            <path d="M299.499,62.146 L299.499,477.477 C400.737,462.742 478.501,375.38 478.501,269.811 C478.501,164.243 400.737,76.881 299.499,62.146 Z M276.396,539.527 C273.991,539.591 271.577,539.623 269.157,539.623 C120.506,539.623 0,418.824 0,269.811 C0,120.799 120.506,0 269.157,0 C271.577,0 273.991,0.032 276.396,0.096 C277.31,0.032 278.233,0 279.163,0 L778,0 L778,539.623 L279.163,539.623 C278.233,539.623 277.31,539.591 276.396,539.527 Z M239.687,477.602 L239.687,62.021 C138.023,76.379 59.813,163.94 59.813,269.811 C59.813,375.683 138.023,463.244 239.687,477.602 Z M438.346,59.958 L718.187,59.958 L718.187,479.665 L438.346,479.665 C499.325,430.201 538.313,354.57 538.313,269.811 C538.313,185.053 499.325,109.422 438.346,59.958 Z" id="Shape"></path>
        </g>
    </g>
</svg>